<svg width="109" height="28" viewBox="0 0 109 28" fill="none" xmlns="http://www.w3.org/2000/svg">
<path d="M15.4102 4.9375V22H11.8945L5.03906 10.5625V22H1.52344V4.9375H5.03906L11.9062 16.3867V4.9375H15.4102ZM18.9188 15.7891V15.543C18.9188 14.6133 19.0516 13.7578 19.3172 12.9766C19.5828 12.1875 19.9695 11.5039 20.4773 10.9258C20.9852 10.3477 21.6102 9.89844 22.3523 9.57812C23.0945 9.25 23.9461 9.08594 24.907 9.08594C25.868 9.08594 26.7234 9.25 27.4734 9.57812C28.2234 9.89844 28.8523 10.3477 29.3602 10.9258C29.8758 11.5039 30.2664 12.1875 30.532 12.9766C30.7977 13.7578 30.9305 14.6133 30.9305 15.543V15.7891C30.9305 16.7109 30.7977 17.5664 30.532 18.3555C30.2664 19.1367 29.8758 19.8203 29.3602 20.4062C28.8523 20.9844 28.2273 21.4336 27.4852 21.7539C26.743 22.0742 25.8914 22.2344 24.9305 22.2344C23.9695 22.2344 23.1141 22.0742 22.3641 21.7539C21.6219 21.4336 20.993 20.9844 20.4773 20.4062C19.9695 19.8203 19.5828 19.1367 19.3172 18.3555C19.0516 17.5664 18.9188 16.7109 18.9188 15.7891ZM22.2938 15.543V15.7891C22.2938 16.3203 22.3406 16.8164 22.4344 17.2773C22.5281 17.7383 22.6766 18.1445 22.8797 18.4961C23.0906 18.8398 23.3641 19.1094 23.7 19.3047C24.0359 19.5 24.4461 19.5977 24.9305 19.5977C25.3992 19.5977 25.8016 19.5 26.1375 19.3047C26.4734 19.1094 26.743 18.8398 26.9461 18.4961C27.1492 18.1445 27.2977 17.7383 27.3914 17.2773C27.493 16.8164 27.5438 16.3203 27.5438 15.7891V15.543C27.5438 15.0273 27.493 14.543 27.3914 14.0898C27.2977 13.6289 27.1453 13.2227 26.9344 12.8711C26.7313 12.5117 26.4617 12.2305 26.1258 12.0273C25.7898 11.8242 25.3836 11.7227 24.907 11.7227C24.4305 11.7227 24.0242 11.8242 23.6883 12.0273C23.3602 12.2305 23.0906 12.5117 22.8797 12.8711C22.6766 13.2227 22.5281 13.6289 22.4344 14.0898C22.3406 14.543 22.2938 15.0273 22.2938 15.543ZM37.8258 18.7188L40.4625 9.32031H42.607L41.9156 13.0117L39.2789 22H37.4859L37.8258 18.7188ZM36.4898 9.32031L38.3766 18.707L38.5523 22H36.443L33.232 9.32031H36.4898ZM45.0211 18.5547L46.8609 9.32031H50.1305L46.9195 22H44.8219L45.0211 18.5547ZM42.9 9.32031L45.525 18.6484L45.8883 22H44.0836L41.4469 13.0234L40.7789 9.32031H42.9Z" fill="#13B5CF"/>
<path d="M64.6898 19.2578V22H55.6078V19.2578H64.6898ZM56.7562 4.9375V22H53.2406V4.9375H56.7562ZM63.5062 11.8867V14.5586H55.6078V11.8867H63.5062ZM64.6781 4.9375V7.69141H55.6078V4.9375H64.6781ZM74.9836 19.2344V4H78.382V22H75.3234L74.9836 19.2344ZM66.968 15.8125V15.5664C66.968 14.5977 67.0773 13.7188 67.2961 12.9297C67.5148 12.1328 67.8352 11.4492 68.257 10.8789C68.6789 10.3086 69.1984 9.86719 69.8156 9.55469C70.4328 9.24219 71.1359 9.08594 71.925 9.08594C72.6672 9.08594 73.3156 9.24219 73.8703 9.55469C74.4328 9.86719 74.9094 10.3125 75.3 10.8906C75.6984 11.4609 76.0188 12.1367 76.2609 12.918C76.5031 13.6914 76.6789 14.5391 76.7883 15.4609V16C76.6789 16.8828 76.5031 17.7031 76.2609 18.4609C76.0188 19.2188 75.6984 19.8828 75.3 20.4531C74.9094 21.0156 74.4328 21.4531 73.8703 21.7656C73.3078 22.0781 72.6516 22.2344 71.9016 22.2344C71.1125 22.2344 70.4094 22.0742 69.7922 21.7539C69.1828 21.4336 68.6672 20.9844 68.2453 20.4062C67.8313 19.8281 67.5148 19.1484 67.2961 18.3672C67.0773 17.5859 66.968 16.7344 66.968 15.8125ZM70.343 15.5664V15.8125C70.343 16.3359 70.382 16.8242 70.4602 17.2773C70.5461 17.7305 70.6828 18.1328 70.8703 18.4844C71.0656 18.8281 71.3156 19.0977 71.6203 19.293C71.9328 19.4805 72.3117 19.5742 72.757 19.5742C73.3352 19.5742 73.8117 19.4453 74.1867 19.1875C74.5617 18.9219 74.8469 18.5586 75.0422 18.0977C75.2453 17.6367 75.3625 17.1055 75.3938 16.5039V14.9688C75.3703 14.4766 75.3 14.0352 75.1828 13.6445C75.0734 13.2461 74.9094 12.9062 74.6906 12.625C74.4797 12.3438 74.2141 12.125 73.8938 11.9688C73.5813 11.8125 73.2102 11.7344 72.7805 11.7344C72.343 11.7344 71.968 11.8359 71.6555 12.0391C71.343 12.2344 71.0891 12.5039 70.8938 12.8477C70.7063 13.1914 70.5656 13.5977 70.4719 14.0664C70.3859 14.5273 70.343 15.0273 70.343 15.5664ZM90.2461 9.32031H93.3047V21.5781C93.3047 22.7344 93.0469 23.7148 92.5312 24.5195C92.0234 25.332 91.3125 25.9453 90.3984 26.3594C89.4844 26.7812 88.4219 26.9922 87.2109 26.9922C86.6797 26.9922 86.1172 26.9219 85.5234 26.7812C84.9375 26.6406 84.375 26.4219 83.8359 26.125C83.3047 25.8281 82.8594 25.4531 82.5 25L83.9883 23.0078C84.3789 23.4609 84.832 23.8125 85.3477 24.0625C85.8633 24.3203 86.4336 24.4492 87.0586 24.4492C87.668 24.4492 88.1836 24.3359 88.6055 24.1094C89.0273 23.8906 89.3516 23.5664 89.5781 23.1367C89.8047 22.7148 89.918 22.2031 89.918 21.6016V12.25L90.2461 9.32031ZM81.7148 15.8125V15.5664C81.7148 14.5977 81.832 13.7188 82.0664 12.9297C82.3086 12.1328 82.6484 11.4492 83.0859 10.8789C83.5312 10.3086 84.0703 9.86719 84.7031 9.55469C85.3359 9.24219 86.0508 9.08594 86.8477 9.08594C87.6914 9.08594 88.3984 9.24219 88.9688 9.55469C89.5391 9.86719 90.0078 10.3125 90.375 10.8906C90.7422 11.4609 91.0273 12.1367 91.2305 12.918C91.4414 13.6914 91.6055 14.5391 91.7227 15.4609V16C91.6055 16.8828 91.4297 17.7031 91.1953 18.4609C90.9609 19.2188 90.6523 19.8828 90.2695 20.4531C89.8867 21.0156 89.4102 21.4531 88.8398 21.7656C88.2773 22.0781 87.6055 22.2344 86.8242 22.2344C86.043 22.2344 85.3359 22.0742 84.7031 21.7539C84.0781 21.4336 83.543 20.9844 83.0977 20.4062C82.6523 19.8281 82.3086 19.1484 82.0664 18.3672C81.832 17.5859 81.7148 16.7344 81.7148 15.8125ZM85.0898 15.5664V15.8125C85.0898 16.3359 85.1406 16.8242 85.2422 17.2773C85.3438 17.7305 85.5 18.1328 85.7109 18.4844C85.9297 18.8281 86.1992 19.0977 86.5195 19.293C86.8477 19.4805 87.2344 19.5742 87.6797 19.5742C88.2969 19.5742 88.8008 19.4453 89.1914 19.1875C89.582 18.9219 89.875 18.5586 90.0703 18.0977C90.2656 17.6367 90.3789 17.1055 90.4102 16.5039V14.9688C90.3945 14.4766 90.3281 14.0352 90.2109 13.6445C90.0938 13.2461 89.9297 12.9062 89.7188 12.625C89.5078 12.3438 89.2344 12.125 88.8984 11.9688C88.5625 11.8125 88.1641 11.7344 87.7031 11.7344C87.2578 11.7344 86.8711 11.8359 86.543 12.0391C86.2227 12.2344 85.9531 12.5039 85.7344 12.8477C85.5234 13.1914 85.3633 13.5977 85.2539 14.0664C85.1445 14.5273 85.0898 15.0273 85.0898 15.5664ZM102.966 22.2344C101.981 22.2344 101.098 22.0781 100.317 21.7656C99.5359 21.4453 98.8719 21.0039 98.325 20.4414C97.7859 19.8789 97.3719 19.2266 97.0828 18.4844C96.7937 17.7344 96.6492 16.9375 96.6492 16.0938V15.625C96.6492 14.6641 96.7859 13.7852 97.0594 12.9883C97.3328 12.1914 97.7234 11.5 98.2312 10.9141C98.7469 10.3281 99.3719 9.87891 100.106 9.56641C100.841 9.24609 101.669 9.08594 102.591 9.08594C103.489 9.08594 104.286 9.23438 104.981 9.53125C105.677 9.82812 106.259 10.25 106.727 10.7969C107.204 11.3438 107.563 12 107.805 12.7656C108.048 13.5234 108.169 14.3672 108.169 15.2969V16.7031H98.0906V14.4531H104.852V14.1953C104.852 13.7266 104.766 13.3086 104.595 12.9414C104.43 12.5664 104.18 12.2695 103.845 12.0508C103.509 11.832 103.079 11.7227 102.555 11.7227C102.11 11.7227 101.727 11.8203 101.407 12.0156C101.087 12.2109 100.825 12.4844 100.622 12.8359C100.427 13.1875 100.278 13.6016 100.177 14.0781C100.083 14.5469 100.036 15.0625 100.036 15.625V16.0938C100.036 16.6016 100.106 17.0703 100.247 17.5C100.395 17.9297 100.602 18.3008 100.868 18.6133C101.141 18.9258 101.47 19.168 101.852 19.3398C102.243 19.5117 102.684 19.5977 103.177 19.5977C103.786 19.5977 104.352 19.4805 104.876 19.2461C105.407 19.0039 105.864 18.6406 106.247 18.1562L107.887 19.9375C107.622 20.3203 107.259 20.6875 106.798 21.0391C106.345 21.3906 105.798 21.6797 105.157 21.9062C104.516 22.125 103.786 22.2344 102.966 22.2344Z" fill="#293E40"/>
</svg>
